<?xml version="1.0" encoding="UTF-8"?>
<svg width="48px" height="48px" viewBox="0 0 48 48" version="1.1" xmlns="http://www.w3.org/2000/svg" xmlns:xlink="http://www.w3.org/1999/xlink">
    <!-- Generator: Sketch 51.1 (57501) - http://www.bohemiancoding.com/sketch -->
    <title>Group 26</title>
    <desc>Created with Sketch.</desc>
    <defs></defs>
    <g id="Symbols" stroke="none" stroke-width="1" fill="none" fill-rule="evenodd">
        <g id="1280_logi_reistersd" transform="translate(-216.000000, -165.000000)">
            <g id="1280_login-copy-2" transform="translate(0.000000, -2.000000)">
                <g id="Group-26" transform="translate(216.000000, 167.000000)">
                    <path d="M24,0 L24,0 C37.254834,-2.4348735e-15 48,10.745166 48,24 L48,24 C48,37.254834 37.254834,48 24,48 L24,48 C10.745166,48 1.623249e-15,37.254834 0,24 L0,24 C-1.623249e-15,10.745166 10.745166,2.4348735e-15 24,0 Z" id="Rectangle-10-Copy-3" fill="#6B8CAF"></path>
                    <g id="vk-copy-2" transform="translate(10.000000, 17.000000)" fill="#FFFFFF" fill-rule="nonzero">
                        <g id="Layer_1">
                            <path d="M25.1915835,5.60436436 C22.4375197,9.20717003 22.1135122,8.88692064 24.3815647,10.9685417 C26.5686154,12.9701004 27.0546266,13.9308486 27.0546266,14.0909733 C27.0546266,14.0909733 27.9456473,15.6922202 26.0826041,15.6922202 L22.4375197,15.7722826 C21.6275009,15.9324073 20.5744765,15.2118461 20.5744765,15.2118461 C19.1974446,14.3311603 17.9014146,11.9292899 16.9293921,12.1694769 C16.9293921,12.1694769 15.9573696,12.4897263 15.9573696,14.6514097 C15.9573696,15.1317838 15.714364,15.3719708 15.714364,15.3719708 C15.714364,15.3719708 15.4713583,15.6121579 14.9853471,15.6922202 L13.3653096,15.6922202 C9.80122701,15.9324073 6.56115196,12.649851 6.56115196,12.649851 C6.56115196,12.649851 3.07807129,9.12710768 0.0810018761,2.0015587 C-0.0810018761,1.52118461 0.0810018761,1.28099757 0.0810018761,1.28099757 C0.0810018761,1.28099757 0.324007504,1.04081052 0.891020637,1.04081052 L4.77911069,0.960748177 C5.18412007,1.04081052 5.34612382,1.20093522 5.34612382,1.20093522 C5.34612382,1.20093522 5.67013133,1.36105992 5.7511332,1.68130931 C6.39914821,3.28255627 7.20916697,4.64361619 7.20916697,4.64361619 C8.66720074,7.52586072 9.55822138,8.08629715 10.1252345,7.76604776 C10.1252345,7.76604776 10.8542514,7.28567367 10.6922476,3.84299271 C10.6112458,2.56199514 10.2872383,2.0015587 10.2872383,2.0015587 C9.96323076,1.52118461 9.39621763,1.44112227 9.07221012,1.44112227 C8.82920449,1.36105992 9.23421387,0.880685829 9.63922325,0.640498785 C10.449242,0.40031174 11.5832683,0.40031174 13.1223039,0.40031174 C14.2563302,0.40031174 14.5803377,0.480374088 15.066349,0.560436436 C16.362379,0.880685829 15.9573696,2.08162105 15.9573696,5.12399028 C15.9573696,6.08473845 15.7953658,7.44579837 16.4433808,7.84611011 C16.7673884,8.00623481 17.4964052,7.92617246 19.2784465,4.80374088 C19.2784465,4.80374088 20.1694671,3.36261862 20.8174822,1.60124696 C20.898484,1.28099757 21.2224915,1.12087287 21.2224915,1.12087287 C21.2224915,1.12087287 21.4654972,0.960748177 21.7895047,1.04081052 L25.8395985,0.960748177 C27.0546266,0.800623481 27.2976322,1.36105992 27.2976322,1.36105992 C27.459636,2.0015587 26.811621,3.36261862 25.1915835,5.60436436 Z" id="vk"></path>
                        </g>
                    </g>
                </g>
            </g>
        </g>
    </g>
</svg>