<?xml version="1.0" encoding="UTF-8"?>
<svg width="48px" height="48px" viewBox="0 0 48 48" version="1.1" xmlns="http://www.w3.org/2000/svg" xmlns:xlink="http://www.w3.org/1999/xlink">
    <!-- Generator: Sketch 51.1 (57501) - http://www.bohemiancoding.com/sketch -->
    <title>Group 20</title>
    <desc>Created with Sketch.</desc>
    <defs></defs>
    <g id="Symbols" stroke="none" stroke-width="1" fill="none" fill-rule="evenodd">
        <g id="1280_logi_reistersd" transform="translate(-152.000000, -165.000000)">
            <g id="1280_login-copy-2" transform="translate(0.000000, -2.000000)">
                <g id="Group-20" transform="translate(152.000000, 167.000000)">
                    <path d="M24,0 L24,0 C37.254834,-2.4348735e-15 48,10.745166 48,24 L48,24 C48,37.254834 37.254834,48 24,48 L24,48 C10.745166,48 1.623249e-15,37.254834 0,24 L0,24 C-1.623249e-15,10.745166 10.745166,2.4348735e-15 24,0 Z" id="Rectangle-10-Copy" fill="#4F69A2"></path>
                    <g id="Layer_1" transform="translate(19.000000, 14.000000)" fill="#FFFFFF" fill-rule="nonzero">
                        <path d="M9.65449276,10.6077058 C9.83495057,9.43906029 9.92517947,8.18051892 10.1056373,7.01187336 L6.67693892,7.01187336 C6.67693892,6.92197754 6.58671001,6.83208173 6.58671001,6.83208173 L6.58671001,4.76447805 C6.58671001,3.59583249 7.12808344,3.05645762 8.3010592,3.05645762 L10.1056373,3.05645762 C10.2860951,3.05645762 10.376324,2.9665618 10.376324,2.78677018 L10.376324,0.359583249 C10.376324,0.179791625 10.2860951,0.0898958123 10.1056373,0.0898958123 C9.11311934,0.0898958123 8.12060139,0 7.12808344,0 C4.78213193,0.0898958123 3.24824056,1.34843718 2.97755384,3.6857283 C2.88732494,4.67458224 2.97755384,5.57354036 2.97755384,6.5623943 C2.97755384,6.92197754 2.79709603,7.01187336 2.43618042,7.01187336 L0,7.01187336 L0,10.4279142 C0,10.51781 0.180457809,10.6077058 0.270686713,10.6077058 L1.44366247,10.6077058 L2.88732494,10.6077058 L2.88732494,11.1470807 C2.88732494,13.5742677 2.97755384,16.0014546 2.97755384,18.3387457 L2.97755384,19.7770787 L6.67693892,19.7770787 L6.67693892,10.6077058 C7.57922796,10.6077058 8.66197481,10.6077058 9.65449276,10.6077058 Z" id="facebook"></path>
                    </g>
                </g>
            </g>
        </g>
    </g>
</svg>