<?xml version="1.0" encoding="UTF-8"?>
<svg width="48px" height="48px" viewBox="0 0 48 48" version="1.1" xmlns="http://www.w3.org/2000/svg" xmlns:xlink="http://www.w3.org/1999/xlink">
    <!-- Generator: Sketch 51.1 (57501) - http://www.bohemiancoding.com/sketch -->
    <title>Group 28</title>
    <desc>Created with Sketch.</desc>
    <defs></defs>
    <g id="Symbols" stroke="none" stroke-width="1" fill="none" fill-rule="evenodd">
        <g id="1280_logi_reistersd" transform="translate(-280.000000, -165.000000)">
            <g id="1280_login-copy-2" transform="translate(0.000000, -2.000000)">
                <g id="Group-28" transform="translate(280.000000, 167.000000)">
                    <path d="M24,0 L24,0 C37.254834,-2.4348735e-15 48,10.745166 48,24 L48,24 C48,37.254834 37.254834,48 24,48 L24,48 C10.745166,48 1.623249e-15,37.254834 0,24 L0,24 C-1.623249e-15,10.745166 10.745166,2.4348735e-15 24,0 Z" id="Rectangle-10-Copy-2" fill="#DC4E41"></path>
                    <g id="Group-20-Copy" transform="translate(12.000000, 16.000000)" fill="#FFFFFF" fill-rule="nonzero">
                        <g id="Group">
                            <g id="Shape">
                                <path d="M0.193743243,8.61372973 C0.0284594595,4.26198649 3.8402027,0.240445946 8.19632432,0.18827027 C10.416527,-0.00109459459 12.576527,0.861081081 14.2567297,2.26727027 C13.5675,3.02509459 12.8662297,3.77416216 12.1171622,4.47543243 C10.638,3.57677027 8.85709459,2.89191892 7.12836486,3.50014865 C4.34006757,4.29409459 2.65147297,7.58627027 3.68331081,10.314 C4.53782432,13.1628649 8.00294595,14.7263108 10.7186351,13.5295541 C12.1248243,13.0260405 13.0519459,11.7285811 13.4587703,10.3344324 C11.8471622,10.3023243 10.2351892,10.3223919 8.62358108,10.2778784 C8.61956757,9.31901351 8.61555405,8.3637973 8.61956757,7.40493243 C11.3071622,7.40091892 13.9987703,7.39289189 16.6903784,7.41697297 C16.8556622,9.76633784 16.5090405,12.2806216 14.9817162,14.1662432 C12.8903108,16.8578514 9.02639189,17.6477838 5.88308108,16.5918649 C2.54712162,15.4961757 0.121135135,12.1354054 0.193743243,8.61372973 Z"></path>
                                <path d="M21.9291081,4.98697297 C22.7270676,4.98697297 23.5246622,4.98697297 24.3262703,4.98697297 C24.3306486,5.78894595 24.3383108,6.59493243 24.3426892,7.39654054 C25.1442973,7.40456757 25.9502838,7.40858108 26.7522568,7.41259459 C26.7522568,8.21456757 26.7522568,9.01216216 26.7522568,9.81413514 C25.9506486,9.81814865 25.1446622,9.82216216 24.3426892,9.82617568 C24.3346622,10.6321622 24.3306486,11.4337703 24.3262703,12.2397568 C23.5246622,12.2357432 22.7223243,12.2397568 21.9247297,12.2397568 C21.9170676,11.4337703 21.9170676,10.6321622 21.9086757,9.83018919 C21.1070676,9.8217973 20.3010811,9.81814865 19.4991081,9.81377027 C19.4991081,9.0117973 19.4991081,8.2142027 19.4991081,7.41222973 C20.3010811,7.40821622 21.1030541,7.4042027 21.9086757,7.39617568 C21.9126892,6.59493243 21.9207162,5.78894595 21.9291081,4.98697297 Z"></path>
                            </g>
                        </g>
                    </g>
                </g>
            </g>
        </g>
    </g>
</svg>